<svg id="Layer_1" data-name="Layer 1" xmlns="http://www.w3.org/2000/svg" viewBox="0 0 392.5 218"><defs><style>.cls-1{fill:#fff;}</style></defs><path class="cls-1" d="M115.75,505.39l77.85-218h64.07L199.11,451.23H337.75l-19,54.16Z" transform="translate(-74.75 -287.39)"/><path class="cls-1" d="M226.75,505.39l77.85-218h64.07L310.11,451.23h97.64l-19.5,54.16Z" transform="translate(-74.75 -287.39)"/><path class="cls-1" d="M304.6,287.39l-77.85,218,53.5-39.5,29.86-124.34H447.75l19.5-54.16Z" transform="translate(-74.75 -287.39)"/><path class="cls-1" d="M146.75,321.39l12-34h36l-12,34Z" transform="translate(-74.75 -287.39)"/><path class="cls-1" d="M98.75,355.39l12-34h36l-12,34Z" transform="translate(-74.75 -287.39)"/><path class="cls-1" d="M74.75,321.39l12-34h36l-12,34Z" transform="translate(-74.75 -287.39)"/><path class="cls-1" d="M122.75,389.39l12-34h36l-12,34Z" transform="translate(-74.75 -287.39)"/></svg>